<svg id="Layer_1" data-name="Layer 1" xmlns="http://www.w3.org/2000/svg" viewBox="0 0 1000 1000"><defs><style>.cls-1{fill:#9b3a33;}</style></defs><title>Artboard 1</title><path class="cls-1" d="M476.15315,882.00749c-1.69607,0-3.39789-.08987-5.087.0185-3.66333.23509-7.02035-.95243-10.46837-1.91227-4.043-1.12543-7.99393-2.48366-11.35391-4.9611a46.10865,46.10865,0,0,1-7.86581-7.14842,83.12426,83.12426,0,0,1-7.69456-10.875,99.10756,99.10756,0,0,1-6.39311-12.45586,116.66174,116.66174,0,0,1-4.26117-12.8035,28.30617,28.30617,0,0,1-1.179-6.91622c-.17113-5.28835-.25135-10.59624.02276-15.87589a43.28432,43.28432,0,0,1,1.70778-8.889,66.74651,66.74651,0,0,1,3.23481-9.73513,23.81472,23.81472,0,0,1,12.70353-12.65839c4.336-1.84446,8.77-3.39458,13.6374-3.05286a55.63006,55.63006,0,0,0,6.51039.01024c8.7394-.4134,15.226,3.75757,20.11646,10.4481,2.3721,3.24514,3.62885,7.16174,4.63359,11.224,1.69119,6.83752,1.25961,13.68484,1.44241,20.55482.17991,6.76087-2.16039,12.65561-6.02435,18.01565-2.55786,3.54823-5.32556,6.94445-7.94925,10.4462-1.442,1.92455-1.09971,3.37544.99252,4.68779,6.66831,4.18285,13.51069,3.87971,20.35224.57969,6.01749-2.90258,9.69536-8.02,12.04538-14.03576a81.95724,81.95724,0,0,0,2.81144-10.44144,72.28726,72.28726,0,0,0,1.69765-17.25753c.0008-4.43793.68058-8.87417.71658-13.31394.10453-12.89447.13584-25.79142.00209-38.68535-.08833-8.51192-.46825-17.02214-.8017-25.52979-.16876-4.30609-.10977-8.68268-.89833-12.88761-1.01436-5.4091-.00206-10.86766-.82951-16.16477-1.026-6.56808-.37477-13.1047-.70428-19.6438q-.33564-6.66048-.82836-13.31265a66.2039,66.2039,0,0,0-.8636-6.99028,2.09088,2.09088,0,0,0-1.62219-1.11136c-4.81522-.08894-9.66268.291-14.44291-.12756-8.09867-.709-16.18164-1.8648-23.5786-5.58389-4.29144-2.15775-8.57037-4.38742-12.64012-6.929-7.12441-4.44917-13.00235-10.44537-18.47443-16.68441-5.1354-5.85527-9.55891-12.34625-14.151-18.66269A88.42746,88.42746,0,0,1,414.86,604.164a108.79912,108.79912,0,0,1-5.49008-11.12831c-2.78561-6.757-5.49661-13.561-7.82008-20.486-1.28842-3.84009-1.7824-7.9549-2.53743-11.96416-.85511-4.54078-1.60224-9.10195-2.39328-13.65479a4.7532,4.7532,0,0,1-.05617-.607c-.27432-6.33817-.74879-12.676-.7599-19.01468-.01-5.72686.28161-11.4741.82224-17.17608.46738-4.92953,1.43806-9.81367,2.24779-14.70768.82178-4.96684,1.3863-10.009,2.66517-14.85939,1.69377-6.42409,3.86581-12.73064,6.0353-19.01763a131.84474,131.84474,0,0,1,5.09418-12.89392,176.27059,176.27059,0,0,1,16.37827-28.767c3.27091-4.52881,6.88525-8.81009,10.36185-13.18939,3.89286-4.9036,7.7777-9.81407,11.721-14.677,2.082-2.5676,4.29973-5.02463,6.42283-7.55954,3.54556-4.23329,7.06195-8.491,10.59548-12.73445,1.55329-1.86536,3.09726-3.7392,4.68321-5.57655,2.38147-2.759,4.73709-5.544,7.21224-8.21736,2.841-3.06846,4.55166-6.32171,4.52844-10.79886-.16148-31.15154-.12143-62.30441-.0484-93.45662.01167-4.98141.40528-9.97055.81765-14.93989.39957-4.81522.87467-9.63791,1.64157-14.405.75459-4.69057,1.85591-9.3295,2.91872-13.965.98964-4.31641,1.88822-8.67745,3.26443-12.87527a154.812,154.812,0,0,1,5.72182-14.81463c2.36362-5.29851,4.91281-10.541,7.78232-15.57917a144.43889,144.43889,0,0,1,9.11669-13.98594,85.51921,85.51921,0,0,1,8.431-9.55747,13.551,13.551,0,0,1,12.18265-4.01507c3.52129.5771,5.7143,3.34228,7.41868,6.1641,2.976,4.92727,4.21543,10.55326,5.73692,16.04745,1.6531,5.96952,3.45344,11.89974,5.01495,17.89263,1.13328,4.34931,2.00547,8.76775,2.95088,13.16466.80406,3.73935,1.6048,7.48126,2.29407,11.24274.41073,2.24147.654,4.51782.88238,6.78758.32993,3.27869.50634,6.5737.874,9.84761,1.31159,11.67874.80814,23.39985.72523,35.10076-.036,5.08307-.90541,10.16-1.38812,15.24043-.07672.80737-.07349,1.62328-.17051,2.4276-.44139,3.65985-.85137,7.32475-1.37711,10.97277-.47841,3.31975-.94075,6.65415-1.67892,9.92133-1.228,5.4354-2.40889,10.90533-4.08974,16.2084-2.10534,6.64217-4.53537,13.19467-7.125,19.6658-2.23173,5.57676-4.69451,11.081-7.40493,16.4402-2.533,5.00836-5.35733,9.89036-8.35293,14.63892-5.56049,8.81441-11.33958,17.49078-17.02661,26.22533a102.91721,102.91721,0,0,0-5.78322,9.01439c-2.93852,5.75072-4.86083,11.79474-4.151,18.4532.67685,6.34965.74048,12.78431,1.75218,19.07237.79557,4.94464.46738,9.842.71263,14.75675.20806,4.16951.57168,8.33131.77057,12.50112.05538,1.161.46711,1.55507,1.5807,1.50921,1.42226-.05859,2.84891-.02377,4.27348-.01144a48.44832,48.44832,0,0,1,16.63864,3.54342,50.2261,50.2261,0,0,1,13.35934,7.283,105.74912,105.74912,0,0,1,14.27791,13.20174,85.05513,85.05513,0,0,1,14.73386,23.86847,92.288,92.288,0,0,1,4.11488,11.58924,74.81352,74.81352,0,0,1,1.84071,11.10849c.453,4.14672.16165,8.41362.97272,12.47249.9873,4.94079.65106,9.847.63717,14.76081a91.34359,91.34359,0,0,1-.85109,14.31777c-1.48477,9.1539-3.31676,18.27349-6.95239,26.88469a142.5128,142.5128,0,0,1-11.62906,21.13053,128.51429,128.51429,0,0,1-12.67583,16.95365,40.02559,40.02559,0,0,1-13.08873,9.29,18.259,18.259,0,0,0-9.711,10.23021,7.90456,7.90456,0,0,0-.38129,2.79813c-.02934,7.32987-.54179,14.70945.143,21.97485.59335,6.29511-.07675,12.63124.80955,18.80481.99349,6.91985.16712,13.79709.687,20.6627,1.05484,13.92957.09464,27.91562.93645,41.81213,1.28513,21.2157.39067,42.41439.48993,63.61507.02294,4.89115-1.82659,9.89406-3.3693,14.666A54.49135,54.49135,0,0,1,511.885,864.3467c-2.988,3.2175-5.75755,6.66338-8.95316,9.65624a29.53546,29.53546,0,0,1-14.9089,7.14285c-3.87966.74786-7.88648.83541-11.83651,1.21784Zm9.86806-465.88411c-1.10839,1.27839-1.81417,1.99623-2.41016,2.796-3.0281,4.06335-6.01368,8.15845-9.04257,12.2212-1.87587,2.51614-3.83863,4.96778-5.69844,7.49548-3.51614,4.77891-6.9628,9.609-10.48494,14.38345-1.86362,2.5262-3.89823,4.92774-5.72618,7.4784q-4.538,6.33211-8.89561,12.79289c-2.85455,4.24845-5.85335,8.43379-8.29672,12.91537a134.458,134.458,0,0,0-6.40814,14.10893,83.75413,83.75413,0,0,0-3.49369,10.80153c-1.0932,4.3261-1.9299,8.72687-2.66541,13.1308a108.414,108.414,0,0,0-1.52048,12.19c-.25981,5.00805-.18463,10.04369-.02606,15.06019.14263,4.51233.54652,9.01886.93193,13.51973a34.368,34.368,0,0,0,.88693,5.36963c.99819,3.99932,1.99145,8.00893,3.239,11.93408a87.41427,87.41427,0,0,0,3.89025,10.2241,96.57408,96.57408,0,0,0,6.055,11.41981,73.16012,73.16012,0,0,0,7.96089,10.52709,160.51394,160.51394,0,0,0,12.06517,11.35768,78.37437,78.37437,0,0,0,6.88,4.78542,36.08781,36.08781,0,0,0,11.29322,5.32633,104.92408,104.92408,0,0,0,14.1025,2.90337c3.6724.463,7.44978.10027,11.18044.09082,3.36471-.00855,3.66614-.21361,3.55844-3.54391-.20955-6.4793-.43883-12.96178-.87274-19.42865-.351-5.23009-1.04738-10.43621-1.52735-15.6587-.33289-3.62146-.55494-7.253-.83272-10.87964q-.81008-10.57581-1.6273-21.151-.40366-5.23705-.81053-10.4738c-.547-7.18581-1.12974-14.36923-1.62-21.55891-.36265-5.3182-.63727-10.64331-.87216-15.9688-.05971-1.35353-.51494-1.80049-1.86521-1.59195-2.8586.44149-5.18431,1.49031-6.55125,4.30346-1.85432,3.81613-4.1998,7.41537-5.80175,11.32611a76.635,76.635,0,0,0-3.57178,11.85539c-1.01723,4.41785-2.249,8.93137-2.25976,13.40588-.02249,9.38859-1.04179,18.82928.68472,28.18078.90018,4.87584,1.60591,9.79812,2.75706,14.61391,1.0603,4.43574,2.24561,8.77927,2.27769,13.41917.0238,3.4425-2.48229,4.61466-4.9462,3.59487-4.03521-1.67-7.99522-3.58283-11.27312-6.70086a40.90277,40.90277,0,0,1-9.467-14.22089c-1.80773-4.33955-3.41911-8.76833-4.93216-13.22058-1.00492-2.95706-1.77436-6.0038-2.48634-9.04851-1.07376-4.59188-2.14842-9.19242-2.94716-13.83671a51.96328,51.96328,0,0,1-.80455-9.44642,159.145,159.145,0,0,1,.86469-16.97353,79.772,79.772,0,0,1,3.01678-13.00242c1.64618-5.53865,3.456-11.04606,5.55641-16.42588a52.59412,52.59412,0,0,1,5.0436-9.68316,93.44105,93.44105,0,0,1,8.45814-11.17667,83.50873,83.50873,0,0,1,9.26544-8.39808,40.747,40.747,0,0,1,6.03623-3.86381c3.56008-1.994,6.54073-4.69536,6.92669-8.80711a109.90873,109.90873,0,0,0,.05943-15.22633c-.20478-4.48843-.98127-8.94791-1.29475-13.43494-.40451-5.78977-.57078-11.59594-.92106-17.39011A8.90539,8.90539,0,0,0,486.02121,416.12338Zm10.02526-73.00218a8.4056,8.4056,0,0,0,2.1614-.71337,93.98645,93.98645,0,0,0,9.76708-6.77412,80.93321,80.93321,0,0,0,14.28368-15.97264,134.72592,134.72592,0,0,0,12.27545-23.358c1.26292-3.01837,2.49925-6.06267,3.48574-9.17814,1.1724-3.70259,2.09066-7.48732,3.06564-11.2503.70858-2.73466,1.43631-5.47165,1.96332-8.24417a59.33261,59.33261,0,0,0,1.43943-9.72387c.19136-9.28376.41333-18.5929-.0848-27.85394-.25167-4.679-1.84606-9.33054-3.18135-13.89255a110.888,110.888,0,0,0-4.17983-11.23115c-.95811-2.3103-2.07476-2.53653-4.26707-1.23939-.86747.51328-1.65941,1.15529-2.53108,1.6604-7.20238,4.17367-12.85508,10.09138-17.7298,16.651A66.10346,66.10346,0,0,0,503.24,239.259q-1.95069,5.48655-3.58007,11.08574c-.954,3.28191-1.8103,6.60344-2.48127,9.95329-.67,3.34479-1.05965,6.746-1.56221,10.12391-.0595.40012-.03511.81223-.085,1.21439-.51165,4.12329-1.49741,8.24961-1.46285,12.36762.11871,14.14038-.79932,28.29735.68689,42.42467.56338,5.35537.64513,10.76143.951,16.14413C495.70981,342.63178,495.77413,342.68732,496.04647,343.1212ZM553.507,571.93164c-.73129-5.57762-1.4031-10.70635-2.07632-15.83483a59.44607,59.44607,0,0,0-5.09441-17.65187,65.897,65.897,0,0,0-7.05309-12.21727,46.53193,46.53193,0,0,0-9.264-8.6625c-5.27489-3.90663-11.21669-6.39531-17.9769-6.35984-5.548.02908-6.01937.73228-5.135,6.35348.69777,4.43535,1.09081,8.92269,1.50437,13.39756.3595,3.89.53586,7.79664.83271,11.6929.52686,6.91483,1.098,13.8263,1.62247,20.74132q.45106,5.9459.80985,11.89859c.30536,5.10238.56269,10.2077.84233,15.31162.04075.744.06964,1.48951.13943,2.231.48505,5.15263.99749,10.30269,1.4644,15.457.30366,3.35237.59421,6.70732.80364,10.06655q.51024,8.184.89244,16.3757c.11648,2.56145.78806,3.29739,2.98675,2.17445a85.58034,85.58034,0,0,0,12.19344-7.07435,39.065,39.065,0,0,0,10.11172-11.68175,73.57867,73.57867,0,0,0,9.23837-22.76507C551.91205,587.55838,552.52094,579.54189,553.507,571.93164Z"/><path class="cls-1" d="M554.13556,646.22617c1.32466-2.10808,2.36-4.06793,3.68631-5.80551,3.39065-4.4421,6.69268-8.98234,10.42963-13.12239,5.84562-6.47617,11.79558-12.89358,18.13619-18.87447a89.73752,89.73752,0,0,1,13.6385-10.32918,133.78971,133.78971,0,0,1,16.2303-8.6967c5.597-2.53983,11.64961-3.84472,17.62374-5.34408a87.03323,87.03323,0,0,1,22.38641-2.33238c6.23814.07263,12.48277-.13278,18.71475.07615a87.43724,87.43724,0,0,1,9.51708,1.31076c2.18893.31786,4.39067.57014,6.56191.98231,4.26967.81065,8.5221,1.71212,13.24989,2.671-.72535,2.43081-1.38084,4.63434-2.0404,6.83667A106.95584,106.95584,0,0,1,692.713,615.151a96.00617,96.00617,0,0,1-9.62983,13.447,94.99245,94.99245,0,0,1-8.87114,8.95625,53.3996,53.3996,0,0,1-19.98746,11.64307c-3.18043,1.05454-6.3861,2.05037-9.62424,2.9065a28.1401,28.1401,0,0,1-5.93306.99623c-8.42824.359-16.86107.72465-25.2947.79673-4.69941.04022-9.41308-.38447-14.10314-.79549-4.60147-.40326-9.19991-.93185-13.76579-1.62786-5.8785-.89611-11.7194-2.03685-17.58446-3.02487-2.37984-.40093-4.78605-.64327-7.17036-1.02024C558.71625,647.107,556.69784,646.69605,554.13556,646.22617Z"/><path class="cls-1" d="M432.92142,646.28418c-6.11711,1.24007-11.749,2.43161-17.40354,3.5037-2.30051.43622-4.64754.63611-6.97813.90237-4.79289.54762-9.58894,1.06761-14.38378,1.59823-.13458.01482-.27.0267-.40525.03-11.14773.27371-22.29508.7076-33.44346.73613-4.18535.01069-8.36487-1.01133-12.5625-1.39193-3.07481-.27888-6.14628-.19422-9.0899-1.50736-4.30847-1.922-8.85678-3.33816-13.0642-5.44654a51.22356,51.22356,0,0,1-13.77726-10.13272c-2.50781-2.57627-5.09219-5.07778-7.61357-7.64107a102.71756,102.71756,0,0,1-13.9642-18.02946c-3.69745-5.96185-7.10674-12.104-10.583-18.20092-1.17108-2.05394-.44115-3.00314,1.86823-3.30768,3.65262-.48165,7.26968-1.23216,10.90273-1.86345,2.63-.457,5.24728-1.0339,7.89573-1.32571,3.67173-.40451,7.36559-.61872,11.05327-.865,4.36261-.29141,8.73764-.83819,13.091-.712,5.14739.14923,10.27931.8802,15.41415,1.39665a75.4073,75.4073,0,0,1,8.38971,1.0094,121.74631,121.74631,0,0,1,22.62613,6.8513,106.91358,106.91358,0,0,1,18.93569,10.41906A149.1229,149.1229,0,0,1,415.423,624.34359c4.02126,4.439,7.69417,9.19411,11.51671,13.81285,1.37534,1.66177,2.77112,3.30967,4.07418,5.02716C431.719,644.113,432.2485,645.17576,432.92142,646.28418Z"/><path class="cls-1" d="M312.19861,514.51441c6.87252,1.369,13.57043,2.43257,20.12556,4.06872a163.40951,163.40951,0,0,1,33.26293,12.093A125.1489,125.1489,0,0,1,390.25261,546.509a5.50181,5.50181,0,0,1,2.04418,4.32886,83.24361,83.24361,0,0,0,1.46264,9.91991c.75514,4.015,1.54486,8.03275,2.56457,11.98609.98424,3.81573,2.26221,7.55665,3.44278,11.32049,2.40793,7.6772,6.09514,14.78715,9.75546,21.90748a17.47913,17.47913,0,0,1,1.29344,2.4852,1.99817,1.99817,0,0,1-.25474,1.72406,1.75044,1.75044,0,0,1-1.66951-.11121c-3.1696-2.49628-6.13672-5.26876-9.42141-7.59548-5.02-3.55594-10.14347-6.99138-15.416-10.15624a98.30435,98.30435,0,0,0-12.11874-6.10666c-3.67032-1.5606-7.5758-2.56284-11.36015-3.86206-1.694-.58153-3.34647-1.28426-5.0158-1.93713a5.04515,5.04515,0,0,0-1.28955-.5176c-4.08788-.3179-8.17728-.62806-12.27115-.84977a2.39675,2.39675,0,0,1-2.52775-1.5447c-.19668-.47679-1.22212-.85514-1.87431-.86215-6.03585-.06463-12.07322-.08208-18.1088-.00617a2.28213,2.28213,0,0,1-2.58052-1.81945,96.82044,96.82044,0,0,1-5.45015-22.28567,116.08409,116.08409,0,0,1-.23955-29.17052C311.58023,520.55838,311.843,517.74747,312.19861,514.51441Z"/><path class="cls-1" d="M573.47864,611.12773c.3502-.75124.74351-1.48564,1.04375-2.25637,2.234-5.735,4.66887-11.38586,5.95708-17.46523a88.05219,88.05219,0,0,1,2.85117-8.76883,6.47253,6.47253,0,0,0,.32864-1.76174c.047-1.42365-.04087-2.85247.025-4.27463.29611-6.39508.55891-12.7934,1.01553-19.17755a4.94688,4.94688,0,0,1,1.68567-2.872c4.7175-4.2611,9.273-8.76349,14.3604-12.54134,15.754-11.69873,33.61813-18.939,52.4838-23.85823,4.92133-1.28326,9.9167-2.28222,14.9156-3.42028a133.11382,133.11382,0,0,1,1.34139,32.82181,99.07962,99.07962,0,0,1-5.55916,26.63469c-.61429,1.68826-1.43989,2.54157-3.37007,2.44965-3.1135-.14824-6.24068.02148-9.35957-.05155-4.87171-.114-9.60416.8802-14.40094,1.46769-7.77738.95243-15.04449,3.57856-22.24191,6.24516-5.57957,2.06722-10.83081,5.16775-15.96495,8.2478a153.27507,153.27507,0,0,0-12.82114,9.03638c-2.37083,1.77625-4.49446,3.88031-6.758,5.80307-1.66152,1.41137-3.36953,2.768-5.05681,4.149Z"/></svg>