<?xml version="1.0" encoding="utf-8"?>
<!-- Generator: Adobe Illustrator 24.0.1, SVG Export Plug-In . SVG Version: 6.00 Build 0)  -->
<svg version="1.1" id="Layer_1" xmlns="http://www.w3.org/2000/svg" xmlns:xlink="http://www.w3.org/1999/xlink" x="0px" y="0px"
	 viewBox="0 0 312.7 462.8" style="enable-background:new 0 0 312.7 462.8;" xml:space="preserve">
<style type="text/css">
	.st0{fill:#9D3C35;}
	.st1{fill:#9D3C35;stroke:#FFE4C8;stroke-width:3;}
	.st2{fill:#FFE4C8;}
	.st3{fill:#636363;}
</style>
<g id="Layer_2_1_">
</g>
<path class="st0" d="M263.2,284.3c-21,17.5-69.7,27.5-69.7,27.5s4.2-41,26.9-65.6c24-26,65.9-30.5,61.9-30.2
	C282.3,216.1,291.1,260.9,263.2,284.3z"/>
<path class="st1" d="M268.2,318.4c-25.9,6.8-75.1-4-75.1-4s18.9-33.5,49.1-45.7c32.4-13,68.8-1.3,68.8-1.3S303,309.3,268.2,318.4z"
	/>
<path class="st0" d="M52.9,285.5c20.8,16.8,70.6,26.3,70.6,26.3s-4.2-39.3-26.7-62.9C72.6,223.6,33.9,220,33.9,220
	S25.1,263,52.9,285.5z"/>
<g>
	<path class="st0" d="M74.7,320c-7.4,0-14.4-0.5-20.9-1.3c-28.3-3.9-47.2-41.3-51.2-50.1c5-1.3,18.9-4.7,35.5-4.7
		c12.9,0,24.7,2.1,35,5.9c26.6,10.3,45.9,36.8,50.9,44.5C117.1,315.9,97.2,320,74.7,320L74.7,320z"/>
	<path class="st2" d="M38,265.7c12.7,0,24.2,1.9,34.2,5.8c24.1,9.3,42,32.2,48.6,41.6c-8.3,1.8-26.4,5.1-46.2,5.1
		c-7.3,0-14.3-0.5-20.7-1.3c-25.7-3.5-43.4-35.9-48.9-47.1C11.1,268.2,23.6,265.7,38,265.7 M38,262c-21.3,0-38,5.4-38,5.4
		s20.2,48.5,53.5,53c7.1,1,14.3,1.3,21.2,1.3c28.1,0,52.1-6.3,52.1-6.3s-21.2-35-53.2-47.3C61.7,263.5,49.2,262,38,262L38,262z"/>
</g>
<g>
	<g>
		<path class="st3" d="M148.3,461c-9.1,0-17.9-3.1-21.8-7.8c-12.5-14.8-16.4-30-12-46.5c3.2-12.1,11.4-14.4,18.3-15.1
			c1.2-0.1,2.3-0.2,3.4-0.2c10.9,0,17.2,5.9,18.9,17.5c2,13.9-0.2,19.3-8.7,29c1.9,1.2,4,1.8,6.1,1.8c5.1,0,9.7-3.6,11.9-9.4
			c2.7-6.9,3-19.6,3.2-29.8l0.1-2.7c0.2-10.1-2.4-60-3.1-72.7c-0.2,0-0.4,0-0.6,0c-0.9-0.1-1.7-0.1-2.4-0.1c-0.2,0-0.5,0-0.7,0
			c-1,0.1-2,0.1-2.9,0.1c-21.4,0-34.5-14.4-43.5-26.9C101,279.4,95.4,257.4,97.6,231c2-23.8,10.4-45.1,25.1-63.2
			c6.2-7.6,15.3-18.4,22.6-27.1l5.1-6.1c1.2-1.5,1.3-2,1.3-5.1v-0.4c0.1-5.9-0.1-12.4-0.2-19.3c-0.4-20.4-0.8-43.6,2.9-62.3
			c2.8-14,9.2-27.6,19.1-40.5V6.9l0.1-0.1c1.5-1.6,5.5-5.4,10-5.4c0.7,0,1.3,0.1,1.9,0.2c4.4,1.2,6.5,6.1,7.4,8.9
			c4,13.4,7.8,26.4,8.9,39.6c2.6,30.3-1.3,55.6-11.7,77.3c-5.2,10.8-11.7,20.7-18,29.8c-3.5,5-6,9.3-5.3,15.4
			c0.8,6.6,1.2,13.2,1.6,20.1c0.2,2.5,0.3,5,0.5,7.5c0.2,0,0.4,0,0.7,0c24.1,0,41.2,26.8,42.9,46c1.4,16,1.4,34.5-8.9,50.9l-1,1.6
			c-4.6,7.4-9.5,15.1-18.1,19.2c-4.2,2-5.7,4.8-5.4,10.3c0.8,15.8,2.5,77.2,2.4,92.4c-0.2,14.7-4,23.4-15,34.3
			C162.3,458.9,155.9,461,148.3,461z M153.1,177.4c-2.5,3.3-4.9,6.7-7.4,10c-5.6,7.6-11.5,15.4-17.1,23.2
			c-17.9,25.1-16.9,64.4,2.3,84.2c9,9.3,17.7,13.5,28,13.5c1.4,0,2.8-0.1,4.3-0.2l-5.4-70c-0.3,0.1-0.6,0.2-0.6,0.2
			c-0.1,0.1-12.9,16-6.9,44.3c0.4,1.7,0.8,3.4,1.2,4.9c1.4,5.8,2.5,10-0.2,11.8c-0.6,0.4-1.4,0.6-2.2,0.6c-2.4,0-5.4-1.8-7.5-3.3
			c-3.2-2.3-5.7-5.5-7.5-9.5c-10.9-24.6-6.8-41.8-6.4-43.1c3.5-18.6,10.7-30.2,23.3-37.5c1.7-1,3.4-3.3,3.4-4.5
			c0-6.1-0.4-12.4-0.8-18.4C153.4,181.6,153.2,179.5,153.1,177.4z M176.7,301.9c10.2-6.9,15.9-25.2,12.7-42.3
			c-2.3-12.6-8.9-21.1-17.6-23.1L176.7,301.9z M182.4,48.6c-17.6,13.1-22.9,45.5-19.2,72.4c8.3-6.7,15.4-18.9,19.3-33.2
			C186.5,73.2,186.5,58.7,182.4,48.6z"/>
		<path class="st2" d="M183.6,3c0.5,0,1,0.1,1.5,0.2c3.6,1,5.5,5.1,6.3,7.9c3.9,12.8,7.7,26,8.8,39.2c2.2,26.2,0.1,52.3-11.6,76.5
			c-5,10.3-11.4,20.1-17.9,29.6c-3.6,5.2-6.3,9.8-5.6,16.4c1.1,9.4,1.5,19,2.2,29c0.7,0,1.4-0.1,2-0.1c22.8,0,39.7,25.1,41.4,44.6
			c1.5,17.3,1,34.6-8.7,50c-4.9,7.8-9.6,16-18.4,20.2c-5.2,2.5-6.6,6.2-6.3,11.7c0.8,15.4,2.5,76.9,2.4,92.3
			c-0.2,15-4.4,23.2-14.5,33.3c-4,4-10.4,5.7-16.9,5.7c-8.4,0-17-2.9-20.7-7.3c-11.5-13.6-16.1-28.2-11.6-45.1
			c2.7-10.2,9.2-13.2,17-14c1.1-0.1,2.2-0.2,3.3-0.2c10.3,0,15.9,5.6,17.4,16.2c2,13.9-0.2,18.7-9.5,29.1c2.6,2.1,5.5,3.1,8.3,3.1
			c5.5,0,10.8-3.8,13.3-10.3c3.1-7.8,3.1-22,3.4-33.1c0.3-10.4-2.6-63.4-3.2-74.2c-1.7-0.1-3.1-0.3-4.5-0.3c-0.3,0-0.5,0-0.8,0
			c-1,0.1-1.9,0.1-2.8,0.1c-19.2,0-31.7-11.6-42.3-26.3c-14.2-19.7-18.5-42.2-16.6-66c1.9-23.2,10.1-44.2,24.8-62.4
			c7.7-9.5,19.8-23.8,27.7-33.2c1.7-2,1.6-2.9,1.6-6.5c0.2-23.2-2.3-56.5,2.7-81.3c2-9.8,6.6-23.9,18.8-39.9
			C175.5,7.1,179.4,3,183.6,3 M162.1,123.7c19.9-13.7,31.5-55,21-77.4C163,59.5,157.5,95.4,162.1,123.7 M158.9,309.9
			c1.9,0,3.8-0.1,5.9-0.4c-1.9-24.6-3.7-48.7-5.6-73.2c-1.7,0.5-2.5,0.6-3,1c-1.1,0.9-13.4,17.5-7.4,45.7c1.6,7.4,3.9,13.6,1.6,15.2
			c-0.4,0.3-0.8,0.4-1.4,0.4c-2.5,0-6-2.5-6.6-3c-4.2-3-6.2-7-7-8.9c-11.1-24.9-6.3-42.2-6.3-42.2c2.8-15,8.5-28.3,22.6-36.5
			c1.9-1.1,4.2-3.8,4.2-5.8c0-9.6-1-19.3-1.4-28.9c-9,12.2-18.1,24.3-27,36.6c-17.8,24.8-18.1,65,2.4,86.1
			C138.1,304.5,147,309.9,158.9,309.9 M175.4,304.4c12.3-6.2,18.9-26.4,15.5-45c-2.6-14-10.2-23.3-20.7-24.6
			C171.9,258,173.6,281,175.4,304.4 M183.6,0L183.6,0c-5,0-9.4,4.1-11.1,5.9L172.4,6l-0.1,0.1c-10,13.1-16.5,26.9-19.4,41.1
			c-3.8,18.8-3.4,42.1-3,62.6c0.1,6.9,0.3,13.4,0.2,19.3v0.4c0,3.1,0,3.1-0.9,4.2c-1.6,1.9-3.3,3.9-5.1,6.1
			c-7.3,8.7-16.4,19.5-22.6,27.1C106.6,185.3,98,206.9,96,231c-2.2,26.7,3.4,49,17.2,68.2c6.3,8.8,12.2,15,18.6,19.4
			c7.9,5.5,16.5,8.2,26.1,8.2c1,0,2,0,3-0.1c0.2,0,0.4,0,0.6,0c0.5,0,1,0,1.6,0.1c0.9,15.7,3.3,61.9,3.1,71.3c0,0.9,0,1.8-0.1,2.8
			c-0.2,10.1-0.5,22.6-3.1,29.3c-2,5.2-6.1,8.4-10.5,8.4c-1.3,0-2.5-0.3-3.7-0.8c7.8-9.2,9.8-15.2,7.8-28.8
			c-1.2-8.6-5.8-18.8-20.4-18.8c-1.1,0-2.3,0.1-3.6,0.2c-6.7,0.7-16.1,3.1-19.6,16.2c-4.5,17-0.5,32.7,12.3,47.9
			c4.2,5,13.4,8.3,23,8.3c8,0,14.7-2.3,19-6.6c11.2-11.1,15.2-20.4,15.4-35.4c0.2-15.1-1.5-76.7-2.4-92.5c-0.3-4.9,0.9-7.1,4.6-8.8
			c9-4.3,13.9-12.2,18.7-19.8c0.3-0.5,0.6-1,1-1.5c10.5-16.8,10.5-35.6,9.2-51.9c-0.9-10.6-5.9-22.3-13.5-31.3
			c-8.5-10.1-19.2-15.8-30.2-16.1c-0.1-2-0.3-4.1-0.4-6.1c-0.4-6.9-0.8-13.5-1.6-20.2c-0.7-5.6,1.7-9.5,5.1-14.4
			c6.3-9.2,12.9-19.1,18.2-30c10.6-21.9,14.4-47.5,11.8-78c-1.1-13.3-4.9-26.4-8.9-39.9c-0.9-3.1-3.3-8.5-8.4-9.9
			C185.1,0.1,184.4,0,183.6,0L183.6,0z M164.3,118c-1.4-12.8-0.8-26.4,1.9-38c2.2-9.3,6.6-21.4,15.5-29
			C188.3,70.8,179.7,103.4,164.3,118L164.3,118z M158.9,306.9c-9.9,0-18.2-4-26.9-13c-9.2-9.5-14.4-23.6-14.7-39.7
			c-0.3-15.6,4.3-31.1,12.6-42.6c5.6-7.8,11.4-15.6,17-23.2c1.6-2.2,3.3-4.4,5-6.7c0,0.7,0.1,1.4,0.1,2.1c0.4,6,0.8,12.3,0.8,18.3
			c-0.1,0.6-1.3,2.4-2.7,3.2c-7.1,4.1-12.6,9.7-16.6,16.8c-3.3,5.9-5.8,12.9-7.4,21.6c-0.5,1.8-4.5,19.3,6.5,44.1
			c1.9,4.3,4.6,7.7,8,10.1c3.3,2.4,6.1,3.6,8.4,3.6c1.1,0,2.2-0.3,3-0.9c3.5-2.4,2.4-7.3,0.8-13.4c-0.4-1.6-0.8-3.2-1.1-4.9
			c-4.5-21.1,1.7-35,4.9-40.4l5,64.9C160.7,306.9,159.8,306.9,158.9,306.9L158.9,306.9z M178,299l-3.9-52.4l-0.6-7.9
			c7.1,2.6,12.4,10.3,14.5,21.3C190.8,275.2,186.4,291.4,178,299L178,299z"/>
	</g>
	<g>
		<path class="st2" d="M161.4,123.3c-3.8-41.5,2.8-66.4,20.9-78.2l1.4-1l0.7,1.6c5.1,10.8,5.6,26.7,1.4,42.7
			c-4.2,15.9-12.5,29.4-22.1,36l-2.1,1.5L161.4,123.3z"/>
		<path class="st2" d="M183,46.3c10.5,22.4-0.3,63.1-20.2,76.9C159.6,88.1,163,59.5,183,46.3 M184.3,41.9l-2.9,1.9
			c-10.2,6.7-16.8,17.2-20.1,32.1c-2.8,12.4-3.2,27.9-1.4,47.6l0.5,5.1l4.2-2.9c9.9-6.9,18.4-20.6,22.7-36.9
			c4.4-16.5,3.8-32.4-1.5-43.7L184.3,41.9L184.3,41.9z"/>
	</g>
	<g>
		<path class="st2" d="M168.5,233.1l1.8,0.2c11,1.3,19.3,10.9,22,25.8c3.7,19.7-3.5,40.2-16.3,46.7l-2,1L168.5,233.1z"/>
		<path class="st2" d="M170.2,234.8c10.5,1.2,18.1,10.6,20.7,24.6c3.5,18.7-3.2,38.9-15.5,45C173.6,281,171.9,258,170.2,234.8
			 M166.9,231.4l0.3,3.6l2.4,31.7l2.9,38l0.3,4.5l4-2c13.4-6.7,20.9-27.9,17.1-48.3c-2.9-15.5-11.6-25.6-23.3-27L166.9,231.4
			L166.9,231.4z"/>
	</g>
</g>
</svg>
