<?xml version="1.0" encoding="utf-8"?>
<!-- Generator: Adobe Illustrator 24.0.1, SVG Export Plug-In . SVG Version: 6.00 Build 0)  -->
<svg version="1.1" id="Layer_1" xmlns="http://www.w3.org/2000/svg" xmlns:xlink="http://www.w3.org/1999/xlink" x="0px" y="0px"
	 viewBox="0 0 729.8 462.5" style="enable-background:new 0 0 729.8 462.5;" xml:space="preserve">
<style type="text/css">
	.st0{fill:#A9554F;}
	.st1{fill:#9D3C35;}
	.st2{fill:#9D3C35;stroke:#FFFFFF;stroke-width:3;}
	.st3{fill:#FFFFFF;}
	.st4{fill:#FAF5F5;}
	.st5{fill:#FBF7F7;}
</style>
<g id="Layer_2">
	<g>
		<g>
			<g>
				<g>
					<g>
						<path class="st0" d="M637.8,346.8c0.1,0,0.1-0.1,0.1-0.1C637.9,346.7,637.8,346.7,637.8,346.8z"/>
						<path class="st0" d="M584.9,340.1l0.6,0.1C585.1,340.1,585,340.1,584.9,340.1z"/>
						<path class="st0" d="M669.9,347.7C669.9,347.7,669.9,347.7,669.9,347.7c0.4,0,1.1,0,2.2,0L669.9,347.7z"/>
						<path class="st0" d="M471.3,340.3l0.7-0.1C471.7,340.3,471.5,340.3,471.3,340.3z"/>
						<path class="st0" d="M538.8,331.6c-0.2,0-0.6,0-0.9,0C538.3,331.7,538.6,331.7,538.8,331.6z"/>
						<path class="st0" d="M686.9,350.3l-0.9-0.2C686,350.2,686.4,350.3,686.9,350.3z"/>
						<path class="st0" d="M719.5,348.4C719.5,348.4,719.5,348.4,719.5,348.4C719.4,348.4,719.5,348.4,719.5,348.4z"/>
						<path class="st0" d="M706.8,348.2c-0.3,0-0.6,0.1-0.9,0.1C706.2,348.3,706.7,348.2,706.8,348.2z"/>
						<path class="st0" d="M705.4,348.3c0.1,0,0.3,0,0.4-0.1C705.6,348.3,705.4,348.3,705.4,348.3z"/>
						<path class="st0" d="M57,346c-0.9,0.2-1.7,0.5-2.5,0.8L57,346z"/>
						<path class="st0" d="M367.9,337.3l0.2-0.1C367.9,337.3,367.9,337.3,367.9,337.3z"/>
						<path class="st0" d="M56.2,347.8l-0.7,0.1C55.8,347.9,56,347.9,56.2,347.8z"/>
						<path class="st0" d="M669.6,351.1c-0.9,0.2-2.9,0-2.9,0.2C667.8,351.2,669.2,351.3,669.6,351.1z"/>
						<path class="st0" d="M346.9,346.8l-0.6,0.1C346.5,346.8,346.7,346.8,346.9,346.8z"/>
						<path class="st0" d="M56.2,347.8l0.8-0.1c-0.1,0-0.2,0-0.2,0C56.6,347.7,56.4,347.8,56.2,347.8z"/>
						<path class="st0" d="M261,341.2C261,341.2,261,341.2,261,341.2c0.1,0,0.2,0,0.3,0L261,341.2z"/>
						<path class="st0" d="M255.3,340.4c0.4,0,0.8,0,1.2,0C255.9,340.4,255.5,340.4,255.3,340.4z"/>
						<path class="st0" d="M54.5,346.8l-1.4,0.5C53.6,347.1,54,346.9,54.5,346.8z"/>
						<path class="st0" d="M193.1,344.6c0.2,0,0.4-0.1,0.6-0.1C193.4,344.6,193.2,344.6,193.1,344.6z"/>
						<path class="st0" d="M543.2,332.1c0.1,0,0.3,0.1,0.5,0.1C543.8,332.2,543.7,332.1,543.2,332.1z"/>
						<path class="st0" d="M501.2,340.7L501.2,340.7L501.2,340.7C501.2,340.7,501.2,340.7,501.2,340.7z"/>
						<path class="st0" d="M503.3,340c-0.7,0.1-1.7,0.5-2.2,0.7C501.9,340.6,502.5,340.4,503.3,340z"/>
						<path class="st0" d="M496.4,341.7c0.1,0,0.2,0,0.3,0C496.5,341.6,496.5,341.6,496.4,341.7z"/>
						<path class="st0" d="M541,337.1C541,337.1,541,337.1,541,337.1C541,337.1,541,337.1,541,337.1L541,337.1z"/>
						<path class="st0" d="M532.2,336.8c-0.2,0-0.4-0.1-0.6-0.1C531.7,336.7,531.9,336.7,532.2,336.8z"/>
						<path class="st0" d="M474,346.2C474,346.2,474,346.2,474,346.2C474,346.2,474,346.2,474,346.2C474,346.2,474,346.2,474,346.2z
							"/>
						<path class="st0" d="M388.3,344.3c8.4,0,19.4,0.5,27.9,1.4c1.9-0.2,4.6,0,7.3,0.2l0.2,0.5l2.3,0c0.9,0.2-1.7-0.1-0.1,0.3
							l0.9-0.2c0.2,0.2,5.8,0.6,2,0.7c2.9,0.3,5.9,0.5,8.8,0.7c2,0.2,1.2-0.3,3.3-0.1c0.4,0.2-0.8,0.1-0.6,0.3c3.3,0.4,5.1,0.2,7,0
							c1.8-0.2,3.6-0.4,6.7-0.3l-0.5,0.1c1-0.1,3-0.1,3-0.2c-0.8-0.5-1.1,0.3-3,0c0.2-0.4,2.3-0.2,2.2-0.6c1.4,0.2,2.3-0.1,3.5-0.1
							c2.1,0.2,5.2,0,6.8,0.2c1-0.2,2.2-0.7,4.4-0.9c1.6,0.2-0.4,0.4,1.8,0.3l0.3-0.3c1.8-0.2,1.5-0.1,1.5,0.1
							c1.9-0.2,1.6-0.5,4-0.7l-1.3,0.4c1.8-0.4,2.5-0.4,4.9-0.8c0,0.2-1,0.3-1.7,0.4c1.4,0.1,2.2-0.5,3-0.6
							c-0.2-0.1-1.9,0.2-1.1-0.2c1.2-0.1,2.5-0.8,3.4-0.7l-1.3,0.5c2.5-0.7,1.3-0.5,4.2-1c-0.2,0-0.1,0.1-0.1,0.2
							c1.7-0.7,4.2-0.9,6.8-1.4l-0.5,0.2c1.1-0.3,1.6-0.7,2.2-0.8c-1.5,0.2-1.1,0-1.3-0.2c2.1,0,2.9-1.1,6.2-1.6
							c0,0.2-0.8,0.5-1.7,0.5c-1,0.7-1.1,1-3,1.7c1.2-0.4,2.6-0.7,2.4-0.5l0.3-0.5c0.7-0.2,1.3-0.3,1.9-0.4c0.3-0.3-1.6-0.1,0.1-0.6
							c1.9-0.5,1.1,0.2,1.4-0.1c2.6-0.7,1-0.7,3.6-1.1c-0.3,0.1-0.7,0.3-1,0.3c1.9-0.2,4.5-1,5.2-0.6c-0.3,0.2-0.3,0.3-1,0.4l0-0.1
							c-2,0.7,1.7-0.4,1.1,0.1c-0.2-0.2,2.4-0.6,3.6-0.8l-0.4-0.2c3.8-1.5-0.1,0.6,3.7-0.1c2.4-0.5-0.9,0,0.5-0.4
							c1.7-0.2,2.3,0,4.7-0.4c0.7,0,2.1,0.1,2.2,0.4c0.7-0.1,1.8-0.2,2.9-0.2c1,0,2-0.1,2.4-0.2c-2.5-0.2-2.5,0.4-5.4,0.2l0.8-0.4
							c1-0.1,2.2-0.2,3.2-0.2c1.1-0.1,2.1-0.1,2.8,0c-0.3-0.1-0.4-0.1-0.2-0.2c2.9-0.1,3.7-0.4,6.6-0.2c0.4,0.3-1.3,0.1-2.5,0.1
							c1.8,0.3,1.9,0.1,4.7,0.4c0.1,0.3-1.9-0.1-2.2,0.1c1,0,2.1,0.1,3.1,0.2c0,0,0,0,0,0.1c0.5-0.4,2.4,0.3,4.3,0.4
							c4.5,0.6,5.3,0.2,7.9,0.3c0.7,0.2,0.8,0.4,0.5,0.4c-1.1-0.4-0.9-0.2-1.3-0.2c1.5,0.2,3.3,1,2.4,1c2.4,0.3-0.8-0.4,0.7-0.2
							l3.3,0.7c-0.3-0.3-1.5-0.6,0.2-0.4c1.5,0.2,2.2,0.4,4,0.8c-0.3,0,0.5,0.5-0.9,0.1c0.9,0.3,2.3,0.6,2.9,0.5
							c-2-0.6,3.4,0.5,2-0.1l2,0.6c-0.5-0.1-0.6,0-1.2-0.2c0.5,0.5,1.7,0.3,2.5,0.4c0.7,0.2,2.6,0.7,2.7,0.8
							c0.7,0.1,2.3,0.5,2.5,0.7c1,0.1,0.1-0.2,0.4-0.2l3.3,0.7c0.1,0.2,0.3,0.8-0.2,0.7c1.3,0.1,0.6-0.4,2.5-0.1
							c-1.2,0.1,2.5,0.7,0.8,0.9c1.1,0.5,4.2,1,6,1.3c1.1-0.1-1.9-0.5-1.7-0.8c4.9,0.8,5.3-0.1,8.9,0.7l-0.9-0.2
							c2.3,0.2,2,0.2,3.3,0.1c-0.7,0.3,2.4,1.3,6.1,1.7c0.3-0.1-2-0.6-1.4-0.8l2.5,0.3c0.2,0.1-0.1,0.1-0.4,0.1c2.2,0.2,4,1,4.7,0.6
							l2.2,0.8l-0.9-0.3c0.3-0.1,2.8,0.1,3.3,0c2.5,0.1,3.4,0.3,4.8,0.6c-0.4-0.2-1.5-0.6,0.5-0.5c-0.1,0.6,4.1,0.6,4.1,0.8
							c0.8,0.1,2.2,0.4,2.3,0.1l-0.2,0.3c0.2-0.5,3.1-0.3,5.4-0.2c-0.5,0.7,2.5,0.1,3.4,0.8c0.4-0.4,4,0,4.4-0.4
							c1.7,0.1,1.5,0.5,2,0.6l0.8-0.1c0.9,0.3,4.1,0.4,6,0.6l1.8-0.4l0.7,0.2c0.3-0.1,1.8-0.1,0.9-0.3l1,0c0.1-0.5,1.4-0.1,3.3-0.2
							c0.4,0.1,0.3,0.2-0.1,0.2c1,0,0.5,0.2,1.1,0.4c-0.7-0.1,3.5-0.8,0.9-1c-0.2-0.2,1.3-0.3,2.3-0.2l0.6,0.4l1.1-0.4
							c1.5,0,2.1,0.2,3.3,0.3c-1.2,0-2.7,0.8,0.4,0.8c-1.7,0.1-2.5,0.3-3.4,0.3c0.7,0,1,0.1,0,0.2c2.5-0.1,0.8-0.2,3.3-0.3
							c-0.1,0.4,0.6,0.5,2.7,0.6l-1.6-0.3c0.1,0,0.2-0.1,0.3-0.1c-0.6,0-0.8-0.1-0.9-0.2c0.5,0,2.9-0.5,3.3-0.2
							c-2.5-0.6,4.3-0.4,2.7-0.8c0.3-0.1,2-0.1,2.2,0c-2.1,0.3,1.6,0.4,1.2,0.6c0.8-0.1-1.6-0.2-0.6-0.4c1.2,0,2.1,0.2,2.8,0.3
							l-0.5,0.1l1.9,0.1c0.3-0.2-1.8-0.3-0.1-0.4c0.5,0.1,2.2,0,2.2,0.1c-0.8,0.3-0.2,0.6-1.7,0.7c1.2,0,5.2-0.1,3.6-0.5l1.5,0
							c-0.9-0.1-3.5-0.4-0.6-0.5l0,0.1l2-0.3l0.9,0.2c0-0.1,0.3-0.2,1.1-0.2c0.2,0.1,0.9,0.1,0.9,0.3c2.2-0.1,2-0.2,2.3-0.4
							c1.2-0.1,1.7,0,1.1,0.2c1.7,0,4.6-0.1,5.8,0c2.3-0.2-0.5-0.1,0.8-0.3c2,0.6,7.5,0,11.2-0.2c-1-0.5,1-0.1,1.7-0.6
							c-0.8,0.2,3.5,0.3,0.3,0.6l2-0.1c1.4,0.2-3.2,0.4-1.2,0.7c2.2-0.1,3.6-0.8,6.2-0.7c-0.9,0.4,2-0.2,1.4,0.2
							c-0.5,0.2-1.3,0.1-2,0.2l0.5,0.1c4.8-0.1,1.4-0.5,3.9-0.9c2.9-0.2,2.3,0.2,2.5,0.4c0.5,0.1,1.9-0.1,2.7-0.2
							c-1.8,0.3-3.3-0.1-2.5-0.4c1.3,0.4,4.4-0.1,5.2-0.4c-4.2-0.3-2.9,0.1-6.9-0.2c-0.5,0.2-0.4,0.6-2.8,0.5
							c1.5-0.3-0.1-0.2-0.5-0.3c0.5,0.2-1.6,0.2-2.4,0.3c-0.7-0.2,1.4-0.6-1-0.6l-0.4,0.6c-0.9,0,0.4-0.4-1.6-0.2
							c1.1-0.3-0.3-0.4,2.4-0.6c-3.3-0.3-5,0.5-7.5,0.7c0.3,0,0.3-0.1,0.5-0.2c-0.5,0.2-1.5,0.2-2.2,0.2c-1.7-0.1,1.3-0.3,0.9-0.4
							l-2.7,0.1c-0.1,0-0.1,0-0.1,0c-0.7,0.1-1.4,0.2-1.6,0c0.8-0.2,1.1-0.4,1.6-0.6l-2.8,0.5c0.3-0.2-2.3-0.2-0.3-0.4l-4.2,0.2
							l-0.4-0.4c-1,0.1-1,0.2,0.2,0.2c-1.4,0-6.3,0.8-5.6,0.1c-3.3,0.4-4.5,0.3-8.4,0.6c3-0.4-3.5-0.3-0.3-0.6
							c-1.9-0.1-2.3,0.3-3.8,0.4c-1.4-0.1-0.8-0.5,0.7-0.7l-1.8,0.2l0-0.1l-1.5,0.2c-1.6-0.2-0.3-0.4-2-0.4l-0.4,0.3l-1.1-0.2
							c0.4,0.1-0.6,0.2-1.8,0.3l0-0.1l-1.5,0.1c1.5-0.2-1.4-0.1-0.7-0.3c-1.3,0-1.3,0-3.6,0.1l0.4,0.2c-3,0.2-0.1-0.3-2.6-0.3
							l0.2,0.3c-3.5-0.4-5.9,0.2-8.5-0.1c1.5,0,1.1-0.3,1.1-0.3c-2.2,0.1-5.9-0.1-8.2,0.2c-0.8-0.4-1-0.5-3.4-0.7
							c-1.7,0-2,0-2.5,0.2c-1.7-0.2-4.8-0.1-4.9-0.4c-0.4,0.2-1.5-0.1-2.4,0l-0.2-0.1l0.1,0.3c-2.9-0.7-5,0-7.9-0.7l0.5,0l-1.3,0
							c-0.2-0.1,0.3-0.2,0.4-0.3c-1.9-0.1-3.9-0.3-5.8-0.5l1.1,0.3c-1.2-0.1-2.1,0.1-3.5-0.2c2.4-0.2-1.9-0.2-2.3-0.5l1.3,0
							c-1.7-0.1-1.7-0.1-1.6,0.1c-2.2-0.1-1.5-0.6-3.5-0.6l1.4,0.2c0.4,0.2-0.6,0.3-1.6,0.2c-0.2-0.1-0.9-0.2-0.2-0.2
							c-1.7-0.1-4.3-0.5-5.1-0.5c-0.9-0.2-0.6-0.3-0.1-0.3c-3.7-0.3-1.7-0.3-5.4-0.5l0.1-0.1l-1.3,0l-1.8-0.5l0.6,0.3
							c-1.2-0.1-2-0.1-3.4-0.5l0.6-0.1c-3.4-0.4-3.9-1-7.2-1.2c-0.2-0.1,0.3-0.1,0.6-0.1c-3.1-0.2-2.2-0.8-5.3-0.9
							c0.2,0-0.1-0.2,0-0.2l-1.4-0.1l0.2-0.3l-1.2,0.2l-0.8-0.4l-0.6,0c-1.4-0.8-3.5-0.8-5.4-1.7l0.3,0.4
							c-5.2-0.3-11.4-2.9-17.7-3.8l0.2-0.3l-2.6-0.2c-1.3-0.5,0.9-0.1,0.5-0.3c-2.8-0.3-1.2,0.2-4.4-0.3c-1.6-0.5,0.6-0.1,1.4-0.1
							c-3-0.4-7.5-0.9-9.6-1.2c-0.1,0-0.2,0.1-0.1,0.1c-1,0-2.2-0.1-3.4-0.3c-1.2-0.1-2.4-0.2-3.6-0.3c0.1-0.1,0.6-0.1,1.2-0.1
							c-0.8-0.1-1.9-0.2-2.6-0.1l0.9-0.2c-1.7-0.1-5.1,0.1-5.5-0.2c0.2,0.1,0.1,0.3-1.4,0.4c-0.9-0.4-4.1,0.4-6.5,0.4
							c0.3-0.2,2-0.3,1.5-0.3c-1.2,0-2.3,0.3-3.3,0.6l0.3-0.2c-1.8,0.3-3.7,0.6-5.5,1c-0.4-0.2-1.7,0.1-2.9,0.3
							c-1.1,0.2-2.1,0.5-2,0.3c-1.9,0.3,1.7-0.1-0.8,0.4c-0.7-0.1-2.2,0.5-2.1,0.2l0.3-0.1l-1.7,0.4l1-0.5c-1.5,0.3-2.5,0.8-2.5,1.1
							c-1.4,0.1-3.4,0.7-4,0.6l0.5-0.2c-3.9,0.9-6.6,0.6-9.5,1.8c-0.2,0-0.2-0.1,0.3-0.2l-2.4,0.5l0.5-0.3l-3.9,1.1l0-0.2
							c-2.6,0.5-6.6,1.3-9.9,1.8l0.5-0.1c-1.8,0.4-2.7,0.4-3.4,0.5c-0.8,0-1.4,0.1-2.7,0.3c0.1,0,0.2-0.1,0.3-0.1
							c-0.8,0.1-1.6,0.2-2.4,0.2l0.5-0.2c-1.8,0.4-5.1-0.1-4,0.1c-1,0.2-2.7,0.5-3,0.6c-2.6,0.1-0.7-0.2-2.3-0.2
							c-1.9,0-2.2,0.3-4.8,0.2l0.1-0.1c-1.2,0-2,0.1-3.7,0.1l0.5-0.1c-2.8,0.2-3.4-0.5-5.6,0c-1.2-0.1-3.4-0.2-3.2-0.5
							c-3.5,0-6.1-0.1-9.6-0.2c-0.5-0.5-0.7,0-2.8-0.5l0.1,0.3c-4.9-0.4-10.4-1.5-15.8-1.9l-0.1-0.3l-1.1,0.2
							c-5.8-0.7-13.4-1.3-18.1-1.5c-1.5,0.1-3.9,0.2-6.3,0.1l0.3,0c-4.3,0.1-8.8,0.1-13.4,0.2c0.3-0.1-0.2-0.2,0.3-0.3
							c-1.1,0.3-2.7,0.1-3.7,0.2c0.4,0,0.8,0.1,1.2,0.1c-1.3,0.3-3.2,0.2-3.9,0.1c-0.7,0.1-1.4,0.3-2.1,0.4c-0.1,0-0.4,0-0.4-0.1
							l-0.4,0.2l-1.1-0.2c-0.5,0.1-3.3,0.4-4.1,0.9c-0.2-0.1-2.2,0-0.7-0.2c-2.5,0.2-5,0.5-7.6,0.7l1.2,0c0.2,0.2-2.1,0.7-3.2,0.7
							c1.5-0.4,0.1-0.4-0.6-0.5c-1,0.3,0.9,0.1,0.4,0.3c-1.3,0.3-4,0.8-4.7,0.7l0.8-0.2c-1.7,0.3-2.6,0-4.3,0.2
							c-1.5,0.4-2.7,0.4-2.3,0.8c-2.2,0.4-0.9-0.2-1.6-0.1c-1,0.3-4.1,0.6-4.5,0.5c-1.1,0.8-6,0.5-6.3,1.1l-1.8-0.1
							c0,0.2-0.4,0.5-1.8,0.7c-1.4,0-1.1-0.3-1.5-0.4l-0.9,0.6c-8,0.3-18.4,1.4-27.1,0.6c-3.9,0-8.8,0-13.3-0.5l0.5,0l-4.5-0.5
							l3.3,0.5c-1,0-1.8,0-2.7-0.1c-5-0.7-11.6-1.6-17.8-1.9c-4.1,0.3-2.6-0.8-6.5-0.6c0.3,0,0.5-0.1,0.8-0.2
							c-4.2-0.1-6.5-0.1-10.7,0.1c0.5-0.6-2.7-0.1-2.4-0.4l-0.4,0.2c-0.9-0.2-3.1-0.2-2.8-0.4l-1.9,0.3l-0.2-0.3
							c-1.2,0-3.2,0.1-5,0.2c-1.8,0.1-3.4,0.1-4.1-0.1c-6.1,0.7-15.6,1.7-23.1,2.6c-1,0.3-3.2,0.7-4.9,0.9l-1.9,0
							c-1.7,0.3-3.5,1-5.1,1c0,0,0.1-0.1,0.2-0.1c-1.7,0.3-3.4,0.4-5,0.9c-1.9,0.3-3.8,0.4-3.3,0c-0.1,0.5-4.1,0.5-4.1,0.5
							s-1.5,0.2-4.3,0.5c-2.7,0.3-6.7,0.8-11.4,1.2c-4.8,0.4-10.4,0.7-16.5,0.8c-6.1,0.1-12.7-0.3-19.6-1
							c-13.7-1.3-28.4-3.7-41.5-4.3c-6.5-0.3-12.6-0.2-17.8,0.3c-1.3,0.1-2.5,0.3-3.7,0.5c-1.2,0.2-2.3,0.3-3.3,0.5
							c-2.1,0.5-3.9,0.8-5.4,1.3c-0.8,0.4-3,1.1-2.1,1.2c-1.7,0.5-2.6,0.2-2.9,0.5c2.4-0.3-0.6,0.8,1.8,0.6l-1.5,0.4
							c-0.3,0.2,2-0.6,1.7-0.2l0.3-0.5c1.2-0.2,1.9-0.2,2.3-0.2c1.1-0.4,1.7-1.2,4.5-1.3l-0.7,0.1c2.2-0.3,1.4,0.1,1.9,0.1l-0.5,0.1
							c0.6,0,1.3,0,1.9,0c-1.4,0-3.7,0.8-2.5,0.5c2.6-0.3-0.7,0,1.3-0.4c1.2-0.2,0.9,0.1,0.9,0.2c0.7-0.1,1.5-0.1,2.2-0.2
							c-0.1,0.2-1.5,0.1-0.5,0.3l2.8-0.5c0.3,0.3,1,0.1,1.9,0c0.8-0.1,1.8-0.2,2.4,0c-2,0.2,0.2,0.2-0.1,0.4
							c1.6-0.1,3.3-0.1,4.9-0.1c0.5,0.1-1.3,0.2-0.5,0.1c0.9,0.2,1.5-0.1,2-0.1c0.2,0.1,1.1,0.1,2,0.1c0.8,0.1,1.6,0.1,1.5,0.3
							c3.3,0.4,1.4-0.4,4.5,0c0.4,0.2-2.5-0.1-1.1,0.2c1.1,0,2.1,0.1,3.2,0.1c-0.3,0.1-0.6,0.3-1.8,0.2c8.6,0.9,13.1,2.7,21,3.4
							c1.1,0.4-0.8,0.1-1.6,0.1c5.7,0.4,7.9,1.6,12.8,2.2l0.1-0.2c6.7,1.5,15,2,22.9,2.5l-0.9-0.2c1.1-0.2,2.8-0.1,4.1-0.2
							c0.2,0.1-0.9,0.5,1.3,0.4c-0.5-0.1-1.4-0.2-1.1-0.3c1.7,0.1,3.8,0.3,6.3,0.3c1.2,0,2.5,0,3.9,0c1.4-0.1,2.8-0.1,4.2-0.2
							c5.8-0.3,12-0.9,17.5-1.5c14.7-2,30.4-4.4,44.6-5.8c-2.2,0.2-1.3-0.4,0.4-0.4c2.3,0.3,4.2,0.1,6.1-0.1
							c1.9-0.2,3.9-0.4,6.2-0.2c8.2-0.6,15.5,0.6,23.3,0.5l0.1,0.3c1.1,0.2,1.5,0.1,2.7,0.1l0,0.1c2.9,0.3,6.4,0.4,8,0.7l0.1-0.3
							c1.7,0.1,0.9,0.3,2.6,0.3l-0.1,0.1l2.1-0.1c-0.2,0.5,4.9,0.5,6.2,0.8c2.2,0.1,6.5,0.2,9.9,0.5c0.6,0.3,4.8,0.5,7.5,0.7
							c5.3,0.1,12.8-0.2,19.4-0.7l-0.1-0.3l1.7-0.2c0,0.1,0.2,0.1,0,0.1c1.4,0.3,4-0.5,5.4-0.4c-0.9-0.2-1.2,0.1-2.2,0.2
							c-1.4,0-0.1-0.5,1.8-0.5l0,0.1l1.3-0.3c0.2,0.2,1.4,0.2,1.5,0.5c5.6-0.7,9.4-1.6,15.2-2.3c-0.6,0.4,4.1-0.6,3,0
							c3.4-0.7-0.6-0.3,0.9-0.9c1-0.1,2-0.4,2.2-0.2c-0.4,0.2,0.8,0.2,0,0.3l2.3-0.3c0.2,0-0.3,0.1-0.5,0.2
							c4.7-0.9,8.3-0.7,12.5-1.5c0.3-0.2-1.7,0.1-1.4-0.1c4.2-0.8,3.8-0.1,7.7-0.7l-0.8,0.3c1.3-0.3,1.8-0.6,3.9-0.5
							c0.4,0.3-1.8,0.4-2.7,0.6c1.4-0.1,5-0.4,3.9-0.6c1.7-0.2,2.3,0,3.3,0c0-0.1-1.6-0.1-0.6-0.3c1.2,0,2.7,0,4.2,0
							c1.5,0,3.2,0,4.6,0c0,0.1,0.2,0.2-0.1,0.2C385.4,343.7,385.1,344.4,388.3,344.3z"/>
						<path class="st0" d="M542.1,337.3l-1.1-0.2c0,0.1-0.1,0.1-0.6,0.2L542.1,337.3z"/>
						<path class="st0" d="M487.9,343.7c-0.1,0.1-0.3,0.1-0.4,0.2C487.8,343.8,487.8,343.7,487.9,343.7z"/>
						<path class="st0" d="M474.4,346.4c1-0.2,0.1-0.2-0.4-0.2C474,346.3,474,346.3,474.4,346.4z"/>
						<path class="st0" d="M573,342.2c-0.2,0-0.3,0-0.3,0.1C573,342.2,573,342.2,573,342.2z"/>
						<path class="st0" d="M660,351c-0.1,0-0.2,0-0.3,0C659.7,351,659.8,351,660,351z"/>
						<path class="st0" d="M655.1,350.5c-0.2,0-0.5,0-1,0C654.6,350.6,654.9,350.6,655.1,350.5z"/>
						<path class="st0" d="M552.3,338.1c-0.3,0-0.6-0.1-0.9-0.1C551.9,338.1,552.2,338.1,552.3,338.1z"/>
						<path class="st0" d="M653.1,350.6l-1.2-0.1c0,0,0,0,0,0.1L653.1,350.6z"/>
						<path class="st0" d="M661.5,351.1c-0.5,0-1.1,0-1.5-0.1C660.6,351.1,661.1,351.1,661.5,351.1z"/>
						<path class="st0" d="M604.7,347.1c0,0-0.1,0-0.1,0C603.7,347.1,604.3,347.2,604.7,347.1z"/>
						<path class="st0" d="M647.8,351c0,0-0.1,0-0.2,0l-0.4,0.1L647.8,351z"/>
						<path class="st0" d="M666.8,351.2c-0.2,0-0.4,0-0.6,0.1C666.4,351.3,666.6,351.3,666.8,351.2
							C666.8,351.3,666.8,351.2,666.8,351.2z"/>
						<path class="st0" d="M622.9,349.4c0.4-0.1,0.5-0.1,0.5-0.2C623,349.2,622.8,349.2,622.9,349.4z"/>
					</g>
				</g>
			</g>
		</g>
	</g>
</g>
<path class="st1" d="M228.3,289.4c-17.1,14.3-56.8,22.4-56.8,22.4s3.4-33.4,21.9-53.5c19.6-21.2,53.7-24.9,50.5-24.6
	C243.9,233.8,251.1,270.3,228.3,289.4z"/>
<path class="st2" d="M232.8,318.8c-21.3,5.6-61.7-3.3-61.7-3.3s15.5-27.5,40.3-37.5c26.6-10.7,56.5-1.1,56.5-1.1
	S261.3,311.3,232.8,318.8z"/>
<path class="st1" d="M41.4,289.4c17.7,14.3,60.1,22.4,60.1,22.4s-3.6-33.4-22.7-53.5c-20.6-21.5-53.5-24.6-53.5-24.6
	S17.8,270.3,41.4,289.4z"/>
<g>
	<path class="st1" d="M61.7,320.3c-6.1,0-11.9-0.4-17.3-1.1C21,316,5.4,285.1,2.1,277.8c4.1-1.1,15.6-3.9,29.3-3.9
		c10.7,0,20.4,1.7,28.9,4.9c22,8.5,37.9,30.4,42.1,36.8C96.8,316.9,80.3,320.3,61.7,320.3C61.7,320.3,61.7,320.3,61.7,320.3z"/>
	<path class="st3" d="M31.4,275.4c10.5,0,20,1.6,28.3,4.8c19.9,7.7,34.7,26.6,40.2,34.4c-6.9,1.5-21.8,4.2-38.2,4.2
		c-6,0-11.8-0.4-17.1-1.1C23.4,314.8,8.7,288,4.2,278.8C9.2,277.5,19.5,275.4,31.4,275.4 M31.4,272.4c-17.6,0-31.4,4.5-31.4,4.5
		s16.7,40.1,44.2,43.8c5.9,0.8,11.8,1.1,17.5,1.1c23.2,0,43.1-5.2,43.1-5.2s-17.5-28.9-44-39.1C51,273.6,40.7,272.4,31.4,272.4
		L31.4,272.4z"/>
</g>
<g>
	<g>
		<path class="st1" d="M126.3,461c-9.1,0-17.9-3.1-21.8-7.8c-12.5-14.8-16.4-30-12-46.5c3.2-12.1,11.4-14.4,18.3-15.1
			c1.2-0.1,2.3-0.2,3.4-0.2c10.9,0,17.2,5.9,18.9,17.5c2,13.9-0.2,19.3-8.7,29c1.9,1.2,4,1.8,6.1,1.8c5.1,0,9.7-3.6,11.9-9.4
			c2.7-6.9,3-19.6,3.2-29.8l0.1-2.7c0.2-10.1-2.4-60-3.1-72.7c-0.2,0-0.4,0-0.6,0c-0.9-0.1-1.7-0.1-2.4-0.1c-0.2,0-0.5,0-0.7,0
			c-1,0.1-2,0.1-2.9,0.1c-21.4,0-34.5-14.4-43.5-26.9c-13.5-18.8-19.1-40.8-16.9-67.2c2-23.8,10.4-45.1,25.1-63.2
			c6.2-7.6,15.3-18.4,22.6-27.1l5.1-6.1c1.2-1.5,1.3-2,1.3-5.1l0-0.4c0.1-5.9-0.1-12.4-0.2-19.3c-0.4-20.4-0.8-43.6,2.9-62.3
			c2.8-14,9.2-27.6,19.1-40.5l0-0.1l0.1-0.1c1.5-1.6,5.5-5.4,10-5.4c0.7,0,1.3,0.1,1.9,0.2c4.4,1.2,6.5,6.1,7.4,8.9
			c4,13.4,7.8,26.4,8.9,39.6c2.6,30.3-1.3,55.6-11.7,77.3c-5.2,10.8-11.7,20.7-18,29.8c-3.5,5-6,9.3-5.3,15.4
			c0.8,6.6,1.2,13.2,1.6,20.1c0.2,2.5,0.3,5,0.5,7.5c0.2,0,0.4,0,0.7,0c24.1,0,41.2,26.8,42.9,46c1.4,16,1.4,34.5-8.9,50.9l-1,1.6
			c-4.6,7.4-9.5,15.1-18.1,19.2c-4.2,2-5.7,4.8-5.4,10.3c0.8,15.8,2.5,77.2,2.4,92.4c-0.2,14.7-4,23.4-15,34.3
			C140.3,458.9,133.9,461,126.3,461z M131.1,177.4c-2.5,3.3-4.9,6.7-7.4,10c-5.6,7.6-11.5,15.4-17.1,23.2
			c-17.9,25.1-16.9,64.4,2.3,84.2c9,9.3,17.7,13.5,28,13.5c1.4,0,2.8-0.1,4.3-0.2l-5.4-70c-0.3,0.1-0.6,0.2-0.6,0.2
			c-0.1,0.1-12.9,16-6.9,44.3c0.4,1.7,0.8,3.4,1.2,4.9c1.4,5.8,2.5,10-0.2,11.8c-0.6,0.4-1.4,0.6-2.2,0.6c-2.4,0-5.4-1.8-7.5-3.3
			c-3.2-2.3-5.7-5.5-7.5-9.5c-10.9-24.6-6.8-41.8-6.4-43.1c3.5-18.6,10.7-30.2,23.3-37.5c1.7-1,3.4-3.3,3.4-4.5
			c0-6.1-0.4-12.4-0.8-18.4C131.4,181.6,131.2,179.5,131.1,177.4z M154.7,301.9c10.2-6.9,15.9-25.2,12.7-42.3
			c-2.3-12.6-8.9-21.1-17.6-23.1L154.7,301.9z M160.4,48.6c-17.6,13.1-22.9,45.5-19.2,72.4c8.3-6.7,15.4-18.9,19.3-33.2
			C164.5,73.2,164.5,58.7,160.4,48.6z"/>
		<path class="st3" d="M161.6,3c0.5,0,1,0.1,1.5,0.2c3.6,1,5.5,5.1,6.3,7.9c3.9,12.8,7.7,26,8.8,39.2c2.2,26.2,0.1,52.3-11.6,76.5
			c-5,10.3-11.4,20.1-17.9,29.6c-3.6,5.2-6.3,9.8-5.6,16.4c1.1,9.4,1.5,19,2.2,29c0.7,0,1.4-0.1,2-0.1c22.8,0,39.7,25.1,41.4,44.6
			c1.5,17.3,1,34.6-8.7,50c-4.9,7.8-9.6,16-18.4,20.2c-5.2,2.5-6.6,6.2-6.3,11.7c0.8,15.4,2.5,76.9,2.4,92.3
			c-0.2,15-4.4,23.2-14.5,33.3c-4,4-10.4,5.7-16.9,5.7c-8.4,0-17-2.9-20.7-7.3C94.1,438.6,89.5,424,94,407.1
			c2.7-10.2,9.2-13.2,17-14c1.1-0.1,2.2-0.2,3.3-0.2c10.3,0,15.9,5.6,17.4,16.2c2,13.9-0.2,18.7-9.5,29.1c2.6,2.1,5.5,3.1,8.3,3.1
			c5.5,0,10.8-3.8,13.3-10.3c3.1-7.8,3.1-22,3.4-33.1c0.3-10.4-2.6-63.4-3.2-74.2c-1.7-0.1-3.1-0.3-4.5-0.3c-0.3,0-0.5,0-0.8,0
			c-1,0.1-1.9,0.1-2.8,0.1c-19.2,0-31.7-11.6-42.3-26.3C79.4,277.5,75.1,255,77,231.2c1.9-23.2,10.1-44.2,24.8-62.4
			c7.7-9.5,19.8-23.8,27.7-33.2c1.7-2,1.6-2.9,1.6-6.5c0.2-23.2-2.3-56.5,2.7-81.3c2-9.8,6.6-23.9,18.8-39.9
			C153.5,7.1,157.4,3,161.6,3 M140.1,123.7c19.9-13.7,31.5-55,21-77.4C141,59.5,135.5,95.4,140.1,123.7 M136.9,309.9
			c1.9,0,3.8-0.1,5.9-0.4c-1.9-24.6-3.7-48.7-5.6-73.2c-1.7,0.5-2.5,0.6-3,1c-1.1,0.9-13.4,17.5-7.4,45.7c1.6,7.4,3.9,13.6,1.6,15.2
			c-0.4,0.3-0.8,0.4-1.4,0.4c-2.5,0-6-2.5-6.6-3c-4.2-3-6.2-7-7-8.9c-11.1-24.9-6.3-42.2-6.3-42.2c2.8-15,8.5-28.3,22.6-36.5
			c1.9-1.1,4.2-3.8,4.2-5.8c0-9.6-1-19.3-1.4-28.9c-9,12.2-18.1,24.3-27,36.6c-17.8,24.8-18.1,65,2.4,86.1
			C116.1,304.5,125,309.9,136.9,309.9 M153.4,304.4c12.3-6.2,18.9-26.4,15.5-45c-2.6-14-10.2-23.3-20.7-24.6
			C149.9,258,151.6,281,153.4,304.4 M161.6,0L161.6,0c-5,0-9.4,4.1-11.1,5.9L150.4,6l-0.1,0.1c-10,13.1-16.5,26.9-19.4,41.1
			c-3.8,18.8-3.4,42.1-3,62.6c0.1,6.9,0.3,13.4,0.2,19.3l0,0.4c0,3.1,0,3.1-0.9,4.2c-1.6,1.9-3.3,3.9-5.1,6.1
			c-7.3,8.7-16.4,19.5-22.6,27.1c-14.9,18.4-23.5,40-25.5,64.1c-2.2,26.7,3.4,49,17.2,68.2c6.3,8.8,12.2,15,18.6,19.4
			c7.9,5.5,16.5,8.2,26.1,8.2c1,0,2,0,3-0.1c0.2,0,0.4,0,0.6,0c0.5,0,1,0,1.6,0.1c0.9,15.7,3.3,61.9,3.1,71.3c0,0.9,0,1.8-0.1,2.8
			c-0.2,10.1-0.5,22.6-3.1,29.3c-2,5.2-6.1,8.4-10.5,8.4c-1.3,0-2.5-0.3-3.7-0.8c7.8-9.2,9.8-15.2,7.8-28.8
			c-1.2-8.6-5.8-18.8-20.4-18.8c-1.1,0-2.3,0.1-3.6,0.2c-6.7,0.7-16.1,3.1-19.6,16.2c-4.5,17-0.5,32.7,12.3,47.9
			c4.2,5,13.4,8.3,23,8.3c8,0,14.7-2.3,19-6.6c11.2-11.1,15.2-20.4,15.4-35.4c0.2-15.1-1.5-76.7-2.4-92.5c-0.3-4.9,0.9-7.1,4.6-8.8
			c9-4.3,13.9-12.2,18.7-19.8c0.3-0.5,0.6-1,1-1.5c10.5-16.8,10.5-35.6,9.2-51.9c-0.9-10.6-5.9-22.3-13.5-31.3
			c-8.5-10.1-19.2-15.8-30.2-16.1c-0.1-2-0.3-4.1-0.4-6.1c-0.4-6.9-0.8-13.5-1.6-20.2c-0.7-5.6,1.7-9.5,5.1-14.4
			c6.3-9.2,12.9-19.1,18.2-30c10.6-21.9,14.4-47.5,11.8-78c-1.1-13.3-4.9-26.4-8.9-39.9c-0.9-3.1-3.3-8.5-8.4-9.9
			C163.1,0.1,162.4,0,161.6,0L161.6,0z M142.3,118c-1.4-12.8-0.8-26.4,1.9-38c2.2-9.3,6.6-21.4,15.5-29
			C166.3,70.8,157.7,103.4,142.3,118L142.3,118z M136.9,306.9c-9.9,0-18.2-4-26.9-13c-9.2-9.5-14.4-23.6-14.7-39.7
			c-0.3-15.6,4.3-31.1,12.6-42.6c5.6-7.8,11.4-15.6,17-23.2c1.6-2.2,3.3-4.4,5-6.7c0,0.7,0.1,1.4,0.1,2.1c0.4,6,0.8,12.3,0.8,18.3
			c-0.1,0.6-1.3,2.4-2.7,3.2c-7.1,4.1-12.6,9.7-16.6,16.8c-3.3,5.9-5.8,12.9-7.4,21.6c-0.5,1.8-4.5,19.3,6.5,44.1
			c1.9,4.3,4.6,7.7,8,10.1c3.3,2.4,6.1,3.6,8.4,3.6c1.1,0,2.2-0.3,3-0.9c3.5-2.4,2.4-7.3,0.8-13.4c-0.4-1.6-0.8-3.2-1.1-4.9
			c-4.5-21.1,1.7-35,4.9-40.4l5,64.9C138.7,306.9,137.8,306.9,136.9,306.9L136.9,306.9z M156,299l-3.9-52.4l-0.6-7.9
			c7.1,2.6,12.4,10.3,14.5,21.3C168.8,275.2,164.4,291.4,156,299L156,299z"/>
	</g>
	<g>
		<path class="st4" d="M139.4,123.3c-3.8-41.5,2.8-66.4,20.9-78.2l1.4-1l0.7,1.6c5.1,10.8,5.6,26.7,1.4,42.7
			c-4.2,15.9-12.5,29.4-22.1,36l-2.1,1.5L139.4,123.3z"/>
		<path class="st3" d="M161,46.3c10.5,22.4-0.3,63.1-20.2,76.9C137.6,88.1,141,59.5,161,46.3 M162.3,41.9l-2.9,1.9
			c-10.2,6.7-16.8,17.2-20.1,32.1c-2.8,12.4-3.2,27.9-1.4,47.6l0.5,5.1l4.2-2.9c9.9-6.9,18.4-20.6,22.7-36.9
			c4.4-16.5,3.8-32.4-1.5-43.7L162.3,41.9L162.3,41.9z"/>
	</g>
	<g>
		<path class="st5" d="M146.5,233.1l1.8,0.2c11,1.3,19.3,10.9,22,25.8c3.7,19.7-3.5,40.2-16.3,46.7l-2,1L146.5,233.1z"/>
		<path class="st3" d="M148.2,234.8c10.5,1.2,18.1,10.6,20.7,24.6c3.5,18.7-3.2,38.9-15.5,45C151.6,281,149.9,258,148.2,234.8
			 M144.9,231.4l0.3,3.6l2.4,31.7l2.9,38l0.3,4.5l4-2c13.4-6.7,20.9-27.9,17.1-48.3c-2.9-15.5-11.6-25.6-23.3-27L144.9,231.4
			L144.9,231.4z"/>
	</g>
</g>
</svg>
